<?xml version="1.0" encoding="UTF-8"?>
<svg xmlns="http://www.w3.org/2000/svg" viewBox="0 0 512 512" width="512" height="512"><g id="outline"><path d="M158.093,265.574l1.062-2.125a8,8,0,0,0-14.31-7.156l-1.063,2.125a24.569,24.569,0,0,1-43.951,0l-1.062-2.125a8,8,0,0,0-14.311,7.156l1.063,2.125a40.569,40.569,0,0,0,72.572,0Z"/><path d="M409.344,364.438a8,8,0,0,0,5.087,3.407l37.625,7.525,14.287,14.287A8,8,0,0,0,480,384V336a8,8,0,0,0-6.431-7.845l-36.164-7.232L424,294.112V172.944a15.912,15.912,0,0,0-8.844-14.31l-27.578-13.789A8,8,0,0,0,376,152v44.686l-8.877-8.877L358.55,157.8a8,8,0,0,0-7.693-5.8h-16V134.857H368a8,8,0,0,0,8-8V65.143a8,8,0,0,0-8-8H334.857V24a8,8,0,0,0-8-8H265.143a8,8,0,0,0-8,8V57.143H224a8,8,0,0,0-8,8v61.714a8,8,0,0,0,8,8h33.143V168a8,8,0,0,0,8,8H316.9l8.794,26.382A7.988,7.988,0,0,0,320,200H168V184h24a8,8,0,0,0,8-8V136a8,8,0,0,0-8-8H168V100a8,8,0,0,0-8-8H120a8,8,0,0,0-8,8v28H88a8,8,0,0,0-8,8v40a8,8,0,0,0,8,8h24v16H67.506a8,8,0,0,0-7.916,6.844l-3.226,22.083L17.49,283.35a8,8,0,0,0,1.174,10.611L48,320.221V432a8,8,0,0,0,7.116,7.951L120,447.16V488a8,8,0,0,0,8,8H472a8,8,0,0,0,8-8V456a8,8,0,0,0-8-8H448V432a8,8,0,0,0-8-8H416V408a8,8,0,0,0-8-8V362.422ZM392,192h16v16H392Zm0-27.056,16,8V176H392ZM352.308,194.2a8.013,8.013,0,0,0,2.035,3.459l24,24A8,8,0,0,0,384,224h24v64H376V240a8,8,0,0,0-2.343-5.657l-30.665-30.664L331.1,168h13.723Zm-87.165-75.341H232V73.143h33.143a8,8,0,0,0,8-8V32h45.714V65.143a8,8,0,0,0,8,8H360v45.714H326.857a8,8,0,0,0-8,8v25.234A7.956,7.956,0,0,0,312.012,160H273.143V126.857A8,8,0,0,0,265.143,118.857Zm56.571,251.958a388.328,388.328,0,0,0,7.3-157.01l-.46-2.917a8,8,0,0,0,1.79,2.769L360,243.313V388.687L348.686,400h-34.4ZM120,168H96V144h24a8,8,0,0,0,8-8V108h24v28a8,8,0,0,0,8,8h24v24H160a8,8,0,0,0-8,8v24H128V176A8,8,0,0,0,120,168Zm8.884,264.049L64,424.84V362.064H80.218a42.089,42.089,0,0,0,29.956-12.407,8,8,0,1,0-11.315-11.314,26.188,26.188,0,0,1-18.641,7.721H64V316.645a8,8,0,0,0-2.664-5.96L34.675,286.819,70.51,236.65a8,8,0,0,0,1.406-3.494L74.422,216H313.161l.047.294a372.435,372.435,0,0,1-7,150.577l-9.961,39.157c-.01.039-.013.079-.022.118-.054.227-.1.458-.131.692-.012.079-.027.157-.036.236A7.856,7.856,0,0,0,296,408v72H136V440A8,8,0,0,0,128.884,432.049ZM432,440v16a8,8,0,0,0,8,8h24v16H312V416h88v16a8,8,0,0,0,8,8ZM406.656,331.562A8,8,0,0,0,392,336v64H371.313l2.344-2.343A8,8,0,0,0,376,392V304h35.056l13.789,27.578a8,8,0,0,0,5.586,4.267L464,342.559v22.128l-2.343-2.344a8.012,8.012,0,0,0-4.088-2.188l-36.751-7.35Z"/></g></svg>
